<svg t="1726800148745" class="icon" viewBox="0 0 1365 1024" version="1.1" xmlns="http://www.w3.org/2000/svg" p-id="1053" width="32" height="32"><path d="M1232.736711 833.558756V1024h-1088.739555V833.558756S-11.377778 821.76 54.3744 745.016889c43.997867-51.370667 209.112178-82.6368 209.112178-82.6368s-23.893333-53.122844-65.706667-76.743111-71.68-53.111467-23.893333-112.150756 244.9408-41.301333 244.9408-94.435555-65.706667-59.039289-101.569422-100.340623c-73.033956-84.195556 77.676089-100.340622 173.2608-129.865955 66.8672-20.650667 132.653511-86.471111 166.206577-124.188445 0-0.591644-0.182044-1.137778-0.182044-1.7408A46.819556 46.819556 0 0 1 662.619022 0h83.342222a46.865067 46.865067 0 0 1 6.109867 22.926222c0 0.329956-0.1024 0.637156-0.1024 0.978489 24.576 34.315378 77.596444 97.848889 146.2272 119.045689 95.573333 29.513956 234.382222 51.552711 161.314133 135.759644-35.851378 41.301333-101.569422 47.217778-101.569422 100.352s197.142756 35.407644 244.929422 94.435556 17.92 88.553244-23.893333 112.150756-65.729422 76.743111-65.729422 76.743111 165.114311 31.266133 209.123555 82.6368c65.718044 76.731733-89.634133 88.530489-89.634133 88.530489zM596.411733 504.342756v85.981866c29.582222-1.274311 60.302222-2.013867 91.773156-2.013866 44.817067 0 87.881956 1.410844 128.489244 3.948088v-84.650666a1228.174222 1228.174222 0 0 0-128.489244-6.656c-31.516444 0-62.179556 1.217422-91.773156 3.413333z m-308.997689 88.655644v49.959822c47.581867-24.132267 147.717689-42.928356 272.292978-50.722133V507.562667c-124.416 13.118578-224.551822 44.794311-272.292978 85.435733z m323.026489-334.506667c-74.8544 10.626844-135.088356 36.295111-163.84 69.2224v40.482134c28.637867-19.547022 88.871822-34.793244 163.84-41.107911v-68.573867z m154.612623 0.091023a549.046044 549.046044 0 0 0-77.368889-5.404445c-18.966756 0-37.421511 0.989867-55.216356 2.753422v69.666134a941.568 941.568 0 0 1 132.585245 1.570133v-68.562489zM932.579556 332.231111c-24.382578-31.744-77.607822-57.321244-145.408-70.144v67.128889c67.879822 7.611733 121.105067 22.755556 145.408 41.642667V332.231111z m162.520177 266.399289C1054.572089 559.479467 966.109867 527.928889 853.412978 512v82.8416c112.822044 9.454933 201.307022 28.205511 241.686755 51.416178v-47.627378z" p-id="1054" fill="#f4ea2a"></path></svg>
